<?xml version="1.0" encoding="utf-8"?>
<!-- Generator: Adobe Illustrator 28.0.0, SVG Export Plug-In . SVG Version: 6.00 Build 0)  -->
<svg version="1.1" id="Layer_1" xmlns="http://www.w3.org/2000/svg" xmlns:xlink="http://www.w3.org/1999/xlink" x="0px" y="0px"
	 viewBox="0 0 413 459" style="enable-background:new 0 0 413 459;" xml:space="preserve">
<style type="text/css">
	.st0{fill:#59B547;}
</style>
<path class="st0" d="M41.5,85.5c0-1.5-0.2-6,2.6-10.3c2.7-4.2,6.5-6.7,11.7-5.6c5.2,1.1,7.9,4.9,8.2,10c0.3,4.6-0.3,9.2-0.7,13.9
	c-1.4,20.2-3.7,40.3-6.3,60.3c-0.4,3.2,0.2,4.8,3.6,5.8c9.9,3.1,14.7,9.9,15.2,20.1c0.5,11-0.9,21.5-7.8,30.6
	c-1.5,1.9-1.5,3.8-0.9,5.9c6.2,23.2,12.1,46.4,19.3,69.3c2.3,7.2,6.6,10.9,13.6,12.3c16,3.2,32.1,4.7,48.4,3c4.3-0.5,8.1-2,11.5-4.7
	c3.5-2.8,6.9-5.6,10.6-8c9-6,9.1-16.6,0.1-22.6c-8.2-5.4-15.9-11-15.7-22.6c0.1-4.1-3.2-7.6-5.8-11c-21.8-28.9-36.8-60.9-43.5-96.5
	c-5.4-28.6-3-56.8,9.7-83.4c12.5-26.1,32.9-43,61.4-49.1c32-6.8,62.3-3.1,88.4,18.2c21.1,17.1,30.6,40.7,34.5,66.9
	c5.6,37.7-4.7,72.2-20.9,105.6c-6.3,12.9-13.5,25.2-22.3,36.6c-4.2,5.4-7.2,10.9-7.9,18.2c-0.8,8.3-7.7,12.9-14.3,16.6
	c-6.3,3.5-7.3,8.6-7,14.8c0.1,2.4,0.9,4,3.5,4.2c6.8,0.7,12.3,4.3,17.1,8.8c6,5.6,12.9,8.3,21.1,8.6c15.2,0.5,30.3-0.5,45.2-4.1
	c5.6-1.4,9.1-4.4,11-10.1c7.9-23.6,13.8-47.7,20.2-71.7c0.8-3.1-0.9-4.7-2.2-6.8c-6.7-11-8.7-22.7-5.6-35.2
	c1.7-6.8,6-11.8,12.9-13.5c4.7-1.2,5.2-3.6,4.7-7.6c-1.9-16.7-3.7-33.5-5.4-50.2c-0.6-6.1-1.1-12.2-1.5-18.3
	c-0.6-8.5,3.1-14.1,9.6-14.6c6.6-0.5,12.6,5.7,12.6,13.7c0.2,17.7,1.1,35.4,2.4,53c0.2,2.7,0.3,5.5,1.7,8.4c3-3.7,3.5-8,4.5-12.1
	c3.4-14.3,6.7-28.7,9.8-43.1c1.9-8.7,5-11.8,11.6-11c6.8,0.8,11.9,6.9,11.8,14.2c-0.1,4.5-2.1,8.5-3.8,12.6
	c-6,14.4-11.9,28.8-17.1,43.5c-1.6,4.5-1.5,7.4,3.2,9.7c4.4,2.2,7.8,5.8,11,9.4c5.2,5.8,7.1,12.7,4.6,20
	c-5.5,16-14.8,28.9-31.8,34.2c-3.6,1.1-3.6,3.7-4.2,6.2c-6.1,24.1-12.5,48.1-18,72.3c-2.9,12.6-10.9,19.4-22,24
	c-19.1,7.8-39.4,10.5-59.7,12.7c-6.1,0.7-12.2,1.2-18.3,1.3c-4.6,0.1-5.8,1.1-4.1,5.8c5.4,14.9,8.4,30.3,9.7,46.2
	c1.1,13.5,1.6,22.6-5.6,60.1c-51.3,16-98.3,6.9-111.5-17c-13.8-25.2,3.8-78.7,5.2-83c0.8-2.4,1.4-4.9,2.4-7.2
	c1.8-4.1,0.7-5.4-3.9-5.6c-18.6-1-37-3.3-54.9-8.2c-5.7-1.5-11.3-3.5-16.7-5.8C66,319.4,58.7,312.1,56,299.8
	c-5.4-24.2-12-48.2-18-72.3c-0.8-3.2-1.9-4.8-5.2-6c-17.3-6.3-26.9-19.7-31.3-36.9c-1.8-7,1.6-13.2,6.5-18.3
	c1.7-1.8,3.6-3.5,5.6-5.1c9.5-7.4,9.7-7.4,5.1-19c-4.8-12.4-9.9-24.6-14.8-36.9c-1.4-3.5-2.8-7.1-3.5-10.8C-1,87,3.4,80.5,10.6,78.7
	c6.4-1.5,10.7,1,12.2,7.4c3.4,14.7,3.7,27.8,6.1,28.3C31.6,115,41.5,99.2,41.5,85.5z M225,208.2c3.7,0.3,8.7-0.5,13.7-1.4
	c27.1-4.9,48-26.9,50.1-52.9c1.5-18.2-10.1-27.4-27.4-21.6c-8.4,2.8-15.3,7.8-21.3,14.2c-13.1,14.1-20.4,31.2-25.6,49.3
	C211,208.2,209.4,208,225,208.2z M179.9,208c2.5,0,5.1-0.1,7.6,0c4,0.2,5.2-1.4,4.2-5.4c-4.6-18.1-11-35.4-22.5-50.3
	c-8.2-10.6-18.1-18.7-31.7-21.4c-11.2-2.2-19.1,3.1-21.3,14.1c-2.2,10.9,0.5,21,5.8,30.3C134.5,198,154.8,207.5,179.9,208z"/>
</svg>
